<svg id="visual" viewBox="0 0 900 600" width="900" height="600" xmlns="http://www.w3.org/2000/svg" xmlns:xlink="http://www.w3.org/1999/xlink" version="1.1"><rect x="0" y="0" width="900" height="600" fill="#eee"></rect><path d="M0 107L37.5 107.7C75 108.3 150 109.7 225 143.2C300 176.7 375 242.3 450 272.2C525 302 600 296 675 280.8C750 265.7 825 241.3 862.5 229.2L900 217L900 0L862.5 0C825 0 750 0 675 0C600 0 525 0 450 0C375 0 300 0 225 0C150 0 75 0 37.5 0L0 0Z" fill="#121212" stroke-linecap="round" stroke-linejoin="miter"></path></svg>